<?xml version="1.0"?>
<svg xmlns="http://www.w3.org/2000/svg" xmlns:xlink="http://www.w3.org/1999/xlink" xmlns:svgjs="http://svgjs.com/svgjs" version="1.1" width="512" height="512" x="0" y="0" viewBox="0 0 512 512" style="enable-background:new 0 0 512 512" xml:space="preserve" class=""><g><g xmlns="http://www.w3.org/2000/svg"><g><path d="m251.84.802-227.732 91.208c-4.683 1.875-7.537 6.649-6.956 11.66 5.25 45.285 36.797 259.272 172.127 353.678 24.382 17.009 47.088 39.246 58.679 51.238 4.401 4.553 11.682 4.553 16.083 0 11.591-11.992 34.297-34.229 58.679-51.238 135.33-94.406 166.878-308.393 172.127-353.678.581-5.011-2.273-9.784-6.956-11.66l-227.731-91.208c-2.67-1.069-5.65-1.069-8.32 0z" fill="#d6d6d6" data-original="#fcb44d" style="" class=""/><path d="m494.848 103.667c-5.254 45.287-36.798 259.276-172.123 353.682-24.384 17.008-47.09 39.24-58.679 51.241-4.409 4.543-11.682 4.543-16.092 0-5.408-5.604-13.238-13.423-22.52-21.912 12.259-12.455 33.192-32.42 55.527-47.996 135.325-94.406 166.879-308.395 172.123-353.682.329-2.802-.423-5.532-1.978-7.726l36.788 14.732c4.677 1.874 7.53 6.654 6.954 11.661z" fill="#aaaaaa" data-original="#fb9927" style="" class=""/><path d="m259.495 462.603c-1.977 1.831-5.014 1.831-6.991 0-12.134-11.239-26.99-23.94-42.595-34.827-51.087-35.637-91.977-95.479-121.536-177.864-18.17-50.641-27.61-97.75-32.274-127.58-.37-2.37.95-4.674 3.176-5.566l194.809-78.022c1.229-.492 2.601-.492 3.83 0l194.809 78.022c2.227.892 3.547 3.196 3.176 5.566-4.664 29.829-14.104 76.939-32.274 127.58-29.559 82.385-70.45 142.227-121.536 177.864-15.604 10.887-30.46 23.588-42.594 34.827z" fill="#e8edf1" data-original="#e8edf1" style="" class=""/><path d="m455.896 122.334c-4.656 29.824-14.103 76.934-32.265 127.578-29.566 82.384-70.454 142.227-121.541 177.861-15.607 10.889-30.463 23.591-42.598 34.83-.989.917-2.236 1.37-3.492 1.37v-425.599c.649 0 1.298.124 1.916.371l194.807 78.016c2.226.896 3.544 3.204 3.173 5.573z" fill="#3c4aed" data-original="#68dbf9" style="" class=""/><path d="m256 423.847v40.126c-1.257 0-2.503-.453-3.492-1.37-6.263-5.8-13.258-12.002-20.707-18.131 7.325-6.686 15.515-13.774 24.199-20.625z" fill="#c5d3dd" data-original="#c5d3dd" style="" class=""/><path d="m455.896 122.334c-4.656 29.824-14.103 76.934-32.265 127.578-29.566 82.384-70.454 142.227-121.541 177.861-15.607 10.889-30.463 23.591-42.598 34.83-.989.917-2.236 1.37-3.492 1.37v-40.126c5.038-3.987 10.24-7.881 15.525-11.569 51.087-35.634 91.975-95.477 121.541-177.861 18.368-51.21 27.815-98.794 32.42-128.567l27.238 10.91c2.225.897 3.543 3.205 3.172 5.574z" fill="#121f9f" data-original="#21c1f8" style="" class=""/></g><g><g><g><g><g><g><path d="m264.869 139.74-5.227 5.227c-2.012 2.012-5.273 2.012-7.285 0l-5.227-5.227c-27.194-27.194-71.285-27.194-98.479 0-27.194 27.194-27.194 71.285 0 98.479l94.9 94.899c6.875 6.875 18.022 6.875 24.897 0l94.9-94.9c27.194-27.194 27.194-71.284 0-98.479-27.195-27.193-71.285-27.194-98.479.001z" fill="#fb4a59" data-original="#fb4a59" style="" class=""/><path d="m363.346 238.215-94.893 94.903c-6.879 6.88-18.029 6.88-24.899 0l-11.591-11.591c2.216-.854 4.289-2.178 6.074-3.963l94.903-94.903c27.192-27.192 27.192-71.28 0-98.482-1.075-1.075-2.178-2.111-3.31-3.09 12.358 2.811 24.093 9.019 33.716 18.652 27.192 27.194 27.192 71.282 0 98.474z" fill="#f82f40" data-original="#f82f40" style="" class=""/></g><g><g><g><path d="m214.24 218.231c-4.268 0-7.726-3.459-7.726-7.726v-7.646c0-4.267 3.459-7.726 7.726-7.726 4.268 0 7.726 3.459 7.726 7.726v7.646c.001 4.267-3.458 7.726-7.726 7.726z" fill="#c80012" data-original="#c21d2c" style="" class=""/></g><g><path d="m297.76 218.231c-4.268 0-7.726-3.459-7.726-7.726v-7.646c0-4.267 3.459-7.726 7.726-7.726s7.726 3.459 7.726 7.726v7.646c0 4.267-3.459 7.726-7.726 7.726z" fill="#c80012" data-original="#c21d2c" style="" class=""/></g></g><g><path d="m256 247.639c-9.875 0-19.387-4.163-26.099-11.423-2.897-3.133-2.705-8.022.428-10.919 3.135-2.896 8.023-2.705 10.919.429 3.851 4.165 9.091 6.46 14.753 6.46s10.901-2.294 14.753-6.46c2.895-3.133 7.784-3.324 10.919-.429 3.133 2.897 3.325 7.785.428 10.919-6.714 7.259-16.226 11.423-26.101 11.423z" fill="#c80012" data-original="#c21d2c" style="" class=""/></g></g></g></g></g></g></g></g></g></svg>
